<?xml version="1.0" ?>
<svg xmlns="http://www.w3.org/2000/svg" version="1.1" width="28" height="28">
  <defs/>
  <g>
    <rect x="0.0" y="0.0" width="28.0" height="28.0" stroke-width="0.0" fill="rgb(255, 255, 255)" opacity="1.0"/>
    <path d="M 15.663171768188477 6.247470855712891 C 16.63531494140625 6.247470855712891 17.546104431152344 6.408320903778076 18.33999252319336 6.692842960357666 C 18.33999252319336 6.692842960357666 18.33999252319336 6.692842960357666 18.33999252319336 6.692842960357666" stroke-width="2.996274471282959" fill="none" stroke="rgb(0, 0, 0)" stroke-opacity="1.0" stroke-linecap="round" stroke-linejoin="round"/>
    <path d="M 10.03530502319336 10.013787269592285 C 10.03530502319336 7.9174909591674805 12.530754089355469 6.247470855712891 15.663171768188477 6.247470855712891" stroke-width="2.996274471282959" fill="none" stroke="rgb(0, 0, 0)" stroke-opacity="1.0" stroke-linecap="round" stroke-linejoin="round"/>
    <path d="M 10.03530502319336 10.013787269592285 C 10.03530502319336 12.310774803161621 12.468425750732422 13.122171401977539 15.522604942321777 14.140677452087402 C 18.576784133911133 15.159183502197266 21.009906768798828 15.970579147338867 21.009906768798828 18.267566680908203" stroke-width="2.996274471282959" fill="none" stroke="rgb(0, 0, 0)" stroke-opacity="1.0" stroke-linecap="round" stroke-linejoin="round"/>
    <path d="M 21.009906768798828 18.267566680908203 C 21.009906768798828 20.765247344970703 18.036645889282227 22.755029678344727 14.30445671081543 22.755029678344727" stroke-width="2.996274471282959" fill="none" stroke="rgb(0, 0, 0)" stroke-opacity="1.0" stroke-linecap="round" stroke-linejoin="round"/>
    <path d="M 14.30445671081543 22.75503158569336 C 13.146177291870117 22.75503158569336 12.060995101928711 22.563383102416992 11.115099906921387 22.224382400512695 C 11.115099906921387 22.224382400512695 11.115099906921387 22.224382400512695 11.115099906921387 22.224382400512695" stroke-width="2.996274471282959" fill="none" stroke="rgb(0, 0, 0)" stroke-opacity="1.0" stroke-linecap="round" stroke-linejoin="round"/>
  </g>
</svg>
